<?xml version="1.0" encoding="UTF-8" standalone="no"?>
<!DOCTYPE svg PUBLIC "-//W3C//DTD SVG 1.1//EN"
 "http://www.w3.org/Graphics/SVG/1.1/DTD/svg11.dtd">
<!-- Generated by graphviz version 2.50.0 (20211204.2007)
 -->
<!-- Title: Sparse_matrix::add_to_matrix Pages: 1 -->
<svg width="272pt" height="104pt"
 viewBox="0.00 0.00 272.00 104.00" xmlns="http://www.w3.org/2000/svg" xmlns:xlink="http://www.w3.org/1999/xlink">
<g id="graph0" class="graph" transform="scale(1 1) rotate(0) translate(4 100)">
<title>Sparse_matrix::add_to_matrix</title>
<polygon fill="white" stroke="transparent" points="-4,4 -4,-100 268,-100 268,4 -4,4"/>
<!-- Node1 -->
<g id="node1" class="node">
<title>Node1</title>
<g id="a_node1"><a xlink:title=" ">
<polygon fill="#bfbfbf" stroke="black" points="163,-33 163,-63 264,-63 264,-33 163,-33"/>
<text text-anchor="start" x="171" y="-51" font-family="Helvetica,sans-Serif" font-size="10.00">Sparse_matrix::add</text>
<text text-anchor="middle" x="213.5" y="-40" font-family="Helvetica,sans-Serif" font-size="10.00">_to_matrix</text>
</a>
</g>
</g>
<!-- Node2 -->
<g id="node2" class="node">
<title>Node2</title>
<g id="a_node2"><a xlink:href="class_sparse__matrix.html#a759ebb7a80630bcf4e6ba81febe7d2b6" target="_top" xlink:title=" ">
<polygon fill="white" stroke="black" points="1,-76.5 1,-95.5 126,-95.5 126,-76.5 1,-76.5"/>
<text text-anchor="middle" x="63.5" y="-83.5" font-family="Helvetica,sans-Serif" font-size="10.00">Sparse_matrix::operator*</text>
</a>
</g>
</g>
<!-- Node1&#45;&gt;Node2 -->
<g id="edge1" class="edge">
<title>Node1&#45;&gt;Node2</title>
<path fill="none" stroke="midnightblue" d="M152.78,-63.33C135.5,-67.77 117.14,-72.49 101.66,-76.46"/>
<polygon fill="midnightblue" stroke="midnightblue" points="153.99,-66.64 162.81,-60.76 152.25,-59.86 153.99,-66.64"/>
</g>
<!-- Node3 -->
<g id="node3" class="node">
<title>Node3</title>
<g id="a_node3"><a xlink:href="class_sparse__matrix.html#a3f70761d28cac4a2676fb2fb3153a41a" target="_top" xlink:title=" ">
<polygon fill="white" stroke="black" points="0,-38.5 0,-57.5 127,-57.5 127,-38.5 0,-38.5"/>
<text text-anchor="middle" x="63.5" y="-45.5" font-family="Helvetica,sans-Serif" font-size="10.00">Sparse_matrix::operator+</text>
</a>
</g>
</g>
<!-- Node1&#45;&gt;Node3 -->
<g id="edge2" class="edge">
<title>Node1&#45;&gt;Node3</title>
<path fill="none" stroke="midnightblue" d="M152.72,-48C144.31,-48 135.66,-48 127.2,-48"/>
<polygon fill="midnightblue" stroke="midnightblue" points="152.81,-51.5 162.81,-48 152.81,-44.5 152.81,-51.5"/>
</g>
<!-- Node4 -->
<g id="node4" class="node">
<title>Node4</title>
<g id="a_node4"><a xlink:href="class_sparse__matrix.html#a1696c2988b1747c56a278086309ef0ef" target="_top" xlink:title=" ">
<polygon fill="white" stroke="black" points="1.5,-0.5 1.5,-19.5 125.5,-19.5 125.5,-0.5 1.5,-0.5"/>
<text text-anchor="middle" x="63.5" y="-7.5" font-family="Helvetica,sans-Serif" font-size="10.00">Sparse_matrix::transitive</text>
</a>
</g>
</g>
<!-- Node1&#45;&gt;Node4 -->
<g id="edge3" class="edge">
<title>Node1&#45;&gt;Node4</title>
<path fill="none" stroke="midnightblue" d="M152.78,-32.67C135.5,-28.23 117.14,-23.51 101.66,-19.54"/>
<polygon fill="midnightblue" stroke="midnightblue" points="152.25,-36.14 162.81,-35.24 153.99,-29.36 152.25,-36.14"/>
</g>
</g>
</svg>
