<?xml version="1.0" encoding="UTF-8" standalone="no"?>
<!DOCTYPE svg PUBLIC "-//W3C//DTD SVG 1.1//EN"
 "http://www.w3.org/Graphics/SVG/1.1/DTD/svg11.dtd">
<!-- Generated by graphviz version 2.50.0 (20211204.2007)
 -->
<!-- Title: Node&lt; T &gt; Pages: 1 -->
<svg width="207pt" height="276pt"
 viewBox="0.00 0.00 206.58 276.00" xmlns="http://www.w3.org/2000/svg" xmlns:xlink="http://www.w3.org/1999/xlink">
<g id="graph0" class="graph" transform="scale(1 1) rotate(0) translate(4 272)">
<title>Node&lt; T &gt;</title>
<polygon fill="white" stroke="transparent" points="-4,4 -4,-272 202.58,-272 202.58,4 -4,4"/>
<!-- Node1 -->
<g id="node1" class="node">
<title>Node1</title>
<g id="a_node1"><a xlink:title=" ">
<polygon fill="#bfbfbf" stroke="black" points="42.58,-0.5 42.58,-57.5 104.58,-57.5 104.58,-0.5 42.58,-0.5"/>
<text text-anchor="middle" x="73.58" y="-45.5" font-family="Helvetica,sans-Serif" font-size="10.00">Node&lt; T &gt;</text>
<polyline fill="none" stroke="black" points="42.58,-38.5 104.58,-38.5 "/>
<text text-anchor="middle" x="73.58" y="-26.5" font-family="Helvetica,sans-Serif" font-size="10.00"> </text>
<polyline fill="none" stroke="black" points="42.58,-19.5 104.58,-19.5 "/>
<text text-anchor="start" x="50.58" y="-7.5" font-family="Helvetica,sans-Serif" font-size="10.00">+ Node()</text>
</a>
</g>
</g>
<!-- Node2 -->
<g id="node2" class="node">
<title>Node2</title>
<g id="a_node2"><a xlink:title=" ">
<polygon fill="white" stroke="black" points="21.08,-210.5 21.08,-267.5 50.08,-267.5 50.08,-210.5 21.08,-210.5"/>
<text text-anchor="middle" x="35.58" y="-255.5" font-family="Helvetica,sans-Serif" font-size="10.00">T</text>
<polyline fill="none" stroke="black" points="21.08,-248.5 50.08,-248.5 "/>
<text text-anchor="middle" x="35.58" y="-236.5" font-family="Helvetica,sans-Serif" font-size="10.00"> </text>
<polyline fill="none" stroke="black" points="21.08,-229.5 50.08,-229.5 "/>
<text text-anchor="middle" x="35.58" y="-217.5" font-family="Helvetica,sans-Serif" font-size="10.00"> </text>
</a>
</g>
</g>
<!-- Node2&#45;&gt;Node1 -->
<g id="edge1" class="edge">
<title>Node2&#45;&gt;Node1</title>
<path fill="none" stroke="#404040" d="M20.95,-212.1C7.55,-184.8 -8.27,-140.89 5.58,-105 11.58,-89.45 22.46,-75.13 33.79,-63.26"/>
<polygon fill="none" stroke="#404040" points="33.93,-63.12 35.39,-56.06 42.47,-54.68 41.01,-61.75 33.93,-63.12"/>
<text text-anchor="middle" x="19.58" y="-131.5" font-family="Helvetica,sans-Serif" font-size="10.00"> +data</text>
</g>
<!-- Node3 -->
<g id="node3" class="node">
<title>Node3</title>
<g id="a_node3"><a xlink:href="class_node.html" target="_top" xlink:title=" ">
<polygon fill="white" stroke="black" points="42.58,-105.5 42.58,-162.5 104.58,-162.5 104.58,-105.5 42.58,-105.5"/>
<text text-anchor="middle" x="73.58" y="-150.5" font-family="Helvetica,sans-Serif" font-size="10.00">Node&lt; T &gt;</text>
<polyline fill="none" stroke="black" points="42.58,-143.5 104.58,-143.5 "/>
<text text-anchor="middle" x="73.58" y="-131.5" font-family="Helvetica,sans-Serif" font-size="10.00"> </text>
<polyline fill="none" stroke="black" points="42.58,-124.5 104.58,-124.5 "/>
<text text-anchor="start" x="50.58" y="-112.5" font-family="Helvetica,sans-Serif" font-size="10.00">+ Node()</text>
</a>
</g>
</g>
<!-- Node2&#45;&gt;Node3 -->
<g id="edge3" class="edge">
<title>Node2&#45;&gt;Node3</title>
<path fill="none" stroke="#404040" d="M45.76,-210.4C49.85,-199.31 54.64,-186.33 59.08,-174.3"/>
<polygon fill="none" stroke="#404040" points="59.21,-173.94 57.54,-166.92 63.37,-162.68 65.04,-169.69 59.21,-173.94"/>
<text text-anchor="middle" x="70.58" y="-184" font-family="Helvetica,sans-Serif" font-size="10.00"> +data</text>
</g>
<!-- Node3&#45;&gt;Node1 -->
<g id="edge2" class="edge">
<title>Node3&#45;&gt;Node1</title>
<path fill="none" stroke="#404040" d="M73.58,-105.4C73.58,-94.55 73.58,-81.87 73.58,-70.05"/>
<polygon fill="none" stroke="#404040" points="73.58,-69.68 69.58,-63.68 73.58,-57.68 77.58,-63.68 73.58,-69.68"/>
<text text-anchor="middle" x="87.58" y="-79" font-family="Helvetica,sans-Serif" font-size="10.00"> +next</text>
</g>
<!-- Node3&#45;&gt;Node3 -->
<g id="edge4" class="edge">
<title>Node3&#45;&gt;Node3</title>
<path fill="none" stroke="#404040" d="M104.68,-143.75C114.66,-143.65 122.58,-140.4 122.58,-134 122.58,-130.6 120.34,-128.09 116.75,-126.47"/>
<polygon fill="none" stroke="#404040" points="116.48,-126.42 109.86,-129.27 104.68,-124.25 111.3,-121.4 116.48,-126.42"/>
<text text-anchor="middle" x="136.58" y="-131.5" font-family="Helvetica,sans-Serif" font-size="10.00"> +next</text>
</g>
<!-- Node4 -->
<g id="node4" class="node">
<title>Node4</title>
<g id="a_node4"><a xlink:title=" ">
<polygon fill="white" stroke="black" points="156.08,-210.5 156.08,-267.5 185.08,-267.5 185.08,-210.5 156.08,-210.5"/>
<text text-anchor="middle" x="170.58" y="-255.5" font-family="Helvetica,sans-Serif" font-size="10.00">int</text>
<polyline fill="none" stroke="black" points="156.08,-248.5 185.08,-248.5 "/>
<text text-anchor="middle" x="170.58" y="-236.5" font-family="Helvetica,sans-Serif" font-size="10.00"> </text>
<polyline fill="none" stroke="black" points="156.08,-229.5 185.08,-229.5 "/>
<text text-anchor="middle" x="170.58" y="-217.5" font-family="Helvetica,sans-Serif" font-size="10.00"> </text>
</a>
</g>
</g>
<!-- Node4&#45;&gt;Node1 -->
<g id="edge6" class="edge">
<title>Node4&#45;&gt;Node1</title>
<path fill="none" stroke="#404040" d="M174.11,-210.4C176.42,-182.31 176.41,-138.29 159.58,-105 149.59,-85.23 131.92,-68.43 115.19,-55.77"/>
<polygon fill="none" stroke="#404040" points="114.72,-55.43 107.51,-55.18 104.97,-48.43 112.17,-48.68 114.72,-55.43"/>
<text text-anchor="middle" x="186.08" y="-131.5" font-family="Helvetica,sans-Serif" font-size="10.00"> +pos</text>
</g>
<!-- Node4&#45;&gt;Node3 -->
<g id="edge5" class="edge">
<title>Node4&#45;&gt;Node3</title>
<path fill="none" stroke="#404040" d="M155.85,-222.36C143.21,-208.94 124.5,-189.07 108.12,-171.67"/>
<polygon fill="none" stroke="#404040" points="108.03,-171.58 101.01,-169.96 99.8,-162.85 106.83,-164.47 108.03,-171.58"/>
<text text-anchor="middle" x="137.08" y="-184" font-family="Helvetica,sans-Serif" font-size="10.00"> +pos</text>
</g>
</g>
</svg>
