<?xml version="1.0" encoding="UTF-8" standalone="no"?>
<!DOCTYPE svg PUBLIC "-//W3C//DTD SVG 1.1//EN"
 "http://www.w3.org/Graphics/SVG/1.1/DTD/svg11.dtd">
<!-- Generated by graphviz version 2.50.0 (20211204.2007)
 -->
<!-- Title: Sparse_matrix::operator+ Pages: 1 -->
<svg width="272pt" height="78pt"
 viewBox="0.00 0.00 272.00 77.50" xmlns="http://www.w3.org/2000/svg" xmlns:xlink="http://www.w3.org/1999/xlink">
<g id="graph0" class="graph" transform="scale(1 1) rotate(0) translate(4 73.5)">
<title>Sparse_matrix::operator+</title>
<polygon fill="white" stroke="transparent" points="-4,4 -4,-73.5 268,-73.5 268,4 -4,4"/>
<!-- Node1 -->
<g id="node1" class="node">
<title>Node1</title>
<g id="a_node1"><a xlink:title=" ">
<polygon fill="#bfbfbf" stroke="black" points="0,-22.5 0,-41.5 127,-41.5 127,-22.5 0,-22.5"/>
<text text-anchor="middle" x="63.5" y="-29.5" font-family="Helvetica,sans-Serif" font-size="10.00">Sparse_matrix::operator+</text>
</a>
</g>
</g>
<!-- Node2 -->
<g id="node2" class="node">
<title>Node2</title>
<g id="a_node2"><a xlink:href="class_sparse__matrix.html#a629b177d5ae819da7c844a9b508e93ca" target="_top" xlink:title=" ">
<polygon fill="white" stroke="black" points="163,-39 163,-69 264,-69 264,-39 163,-39"/>
<text text-anchor="start" x="171" y="-57" font-family="Helvetica,sans-Serif" font-size="10.00">Sparse_matrix::add</text>
<text text-anchor="middle" x="213.5" y="-46" font-family="Helvetica,sans-Serif" font-size="10.00">_to_matrix</text>
</a>
</g>
</g>
<!-- Node1&#45;&gt;Node2 -->
<g id="edge1" class="edge">
<title>Node1&#45;&gt;Node2</title>
<path fill="none" stroke="midnightblue" d="M127.27,-41.33C135.67,-42.58 144.27,-43.86 152.62,-45.1"/>
<polygon fill="midnightblue" stroke="midnightblue" points="152.24,-48.58 162.65,-46.59 153.27,-41.66 152.24,-48.58"/>
</g>
<!-- Node3 -->
<g id="node3" class="node">
<title>Node3</title>
<g id="a_node3"><a xlink:href="class_sparse__matrix.html#a01ce0affe790c6accdab1ca5d98ac90d" target="_top" xlink:title=" ">
<polygon fill="white" stroke="black" points="164,-0.5 164,-19.5 263,-19.5 263,-0.5 164,-0.5"/>
<text text-anchor="middle" x="213.5" y="-7.5" font-family="Helvetica,sans-Serif" font-size="10.00">Sparse_matrix::get</text>
</a>
</g>
</g>
<!-- Node1&#45;&gt;Node3 -->
<g id="edge2" class="edge">
<title>Node1&#45;&gt;Node3</title>
<path fill="none" stroke="midnightblue" d="M127.27,-22.67C135.99,-21.37 144.92,-20.05 153.57,-18.76"/>
<polygon fill="midnightblue" stroke="midnightblue" points="154.18,-22.21 163.56,-17.28 153.15,-15.28 154.18,-22.21"/>
</g>
</g>
</svg>
