<?xml version="1.0" encoding="UTF-8" standalone="no"?>
<!DOCTYPE svg PUBLIC "-//W3C//DTD SVG 1.1//EN"
 "http://www.w3.org/Graphics/SVG/1.1/DTD/svg11.dtd">
<!-- Generated by graphviz version 2.50.0 (20211204.2007)
 -->
<!-- Title: find_all_combination_sum_recursion Pages: 1 -->
<svg width="423pt" height="57pt"
 viewBox="0.00 0.00 423.00 57.00" xmlns="http://www.w3.org/2000/svg" xmlns:xlink="http://www.w3.org/1999/xlink">
<g id="graph0" class="graph" transform="scale(1 1) rotate(0) translate(4 53)">
<title>find_all_combination_sum_recursion</title>
<polygon fill="white" stroke="transparent" points="-4,4 -4,-53 419,-53 419,4 -4,4"/>
<!-- Node1 -->
<g id="node1" class="node">
<title>Node1</title>
<g id="a_node1"><a xlink:title=" ">
<polygon fill="#bfbfbf" stroke="black" points="311,-0.5 311,-30.5 415,-30.5 415,-0.5 311,-0.5"/>
<text text-anchor="start" x="319" y="-18.5" font-family="Helvetica,sans-Serif" font-size="10.00">find_all_combination</text>
<text text-anchor="middle" x="363" y="-7.5" font-family="Helvetica,sans-Serif" font-size="10.00">_sum_recursion</text>
</a>
</g>
</g>
<!-- Node1&#45;&gt;Node1 -->
<g id="edge3" class="edge">
<title>Node1&#45;&gt;Node1</title>
<path fill="none" stroke="midnightblue" d="M390.01,-40.96C386.66,-45.68 377.65,-49 363,-49 338.95,-49 330.12,-40.06 336.51,-30.66"/>
<polygon fill="midnightblue" stroke="midnightblue" points="393.49,-40.47 389.49,-30.66 386.5,-40.82 393.49,-40.47"/>
</g>
<!-- Node2 -->
<g id="node2" class="node">
<title>Node2</title>
<g id="a_node2"><a xlink:href="dice_8h.html#a8a7a6e26f8c023725dde2b4cc54ad376" target="_top" xlink:title=" ">
<polygon fill="white" stroke="black" points="147,-6 147,-25 275,-25 275,-6 147,-6"/>
<text text-anchor="middle" x="211" y="-13" font-family="Helvetica,sans-Serif" font-size="10.00">find_all_combination_sum</text>
</a>
</g>
</g>
<!-- Node1&#45;&gt;Node2 -->
<g id="edge1" class="edge">
<title>Node1&#45;&gt;Node2</title>
<path fill="none" stroke="midnightblue" d="M300.68,-15.5C292.27,-15.5 283.62,-15.5 275.18,-15.5"/>
<polygon fill="midnightblue" stroke="midnightblue" points="300.8,-19 310.8,-15.5 300.8,-12 300.8,-19"/>
</g>
<!-- Node3 -->
<g id="node3" class="node">
<title>Node3</title>
<g id="a_node3"><a xlink:href="dice_8h.html#a0ab806f37c5eb244da8430eaefd6c7db" target="_top" xlink:title=" ">
<polygon fill="white" stroke="black" points="0,-0.5 0,-30.5 111,-30.5 111,-0.5 0,-0.5"/>
<text text-anchor="start" x="8" y="-18.5" font-family="Helvetica,sans-Serif" font-size="10.00">compare_two_sets_of</text>
<text text-anchor="middle" x="55.5" y="-7.5" font-family="Helvetica,sans-Serif" font-size="10.00">_dices</text>
</a>
</g>
</g>
<!-- Node2&#45;&gt;Node3 -->
<g id="edge2" class="edge">
<title>Node2&#45;&gt;Node3</title>
<path fill="none" stroke="midnightblue" d="M136.43,-15.5C127.98,-15.5 119.48,-15.5 111.34,-15.5"/>
<polygon fill="midnightblue" stroke="midnightblue" points="136.68,-19 146.68,-15.5 136.68,-12 136.68,-19"/>
</g>
</g>
</svg>
