<?xml version="1.0" encoding="UTF-8" standalone="no"?>
<!DOCTYPE svg PUBLIC "-//W3C//DTD SVG 1.1//EN"
 "http://www.w3.org/Graphics/SVG/1.1/DTD/svg11.dtd">
<!-- Generated by graphviz version 2.50.0 (20211204.2007)
 -->
<!-- Title: find_all_combination_sum Pages: 1 -->
<svg width="276pt" height="57pt"
 viewBox="0.00 0.00 276.00 57.00" xmlns="http://www.w3.org/2000/svg" xmlns:xlink="http://www.w3.org/1999/xlink">
<g id="graph0" class="graph" transform="scale(1 1) rotate(0) translate(4 53)">
<title>find_all_combination_sum</title>
<polygon fill="white" stroke="transparent" points="-4,4 -4,-53 272,-53 272,4 -4,4"/>
<!-- Node1 -->
<g id="node1" class="node">
<title>Node1</title>
<g id="a_node1"><a xlink:title=" ">
<polygon fill="#bfbfbf" stroke="black" points="0,-6 0,-25 128,-25 128,-6 0,-6"/>
<text text-anchor="middle" x="64" y="-13" font-family="Helvetica,sans-Serif" font-size="10.00">find_all_combination_sum</text>
</a>
</g>
</g>
<!-- Node2 -->
<g id="node2" class="node">
<title>Node2</title>
<g id="a_node2"><a xlink:href="dice_8h.html#a6dbd05e57cb9191384ae73db091e33cb" target="_top" xlink:title=" ">
<polygon fill="white" stroke="black" points="164,-0.5 164,-30.5 268,-30.5 268,-0.5 164,-0.5"/>
<text text-anchor="start" x="172" y="-18.5" font-family="Helvetica,sans-Serif" font-size="10.00">find_all_combination</text>
<text text-anchor="middle" x="216" y="-7.5" font-family="Helvetica,sans-Serif" font-size="10.00">_sum_recursion</text>
</a>
</g>
</g>
<!-- Node1&#45;&gt;Node2 -->
<g id="edge1" class="edge">
<title>Node1&#45;&gt;Node2</title>
<path fill="none" stroke="midnightblue" d="M128.18,-15.5C136.6,-15.5 145.23,-15.5 153.62,-15.5"/>
<polygon fill="midnightblue" stroke="midnightblue" points="153.72,-19 163.72,-15.5 153.72,-12 153.72,-19"/>
</g>
<!-- Node2&#45;&gt;Node2 -->
<g id="edge2" class="edge">
<title>Node2&#45;&gt;Node2</title>
<path fill="none" stroke="midnightblue" d="M189.51,-30.66C183.12,-40.06 191.95,-49 216,-49 230.65,-49 239.66,-45.68 243.01,-40.96"/>
<polygon fill="midnightblue" stroke="midnightblue" points="246.49,-40.47 242.49,-30.66 239.5,-40.82 246.49,-40.47"/>
</g>
</g>
</svg>
