<?xml version="1.0" encoding="UTF-8" standalone="no"?>
<!DOCTYPE svg PUBLIC "-//W3C//DTD SVG 1.1//EN"
 "http://www.w3.org/Graphics/SVG/1.1/DTD/svg11.dtd">
<!-- Generated by graphviz version 2.50.0 (20211204.2007)
 -->
<!-- Title: lab_1(uml).cpp Pages: 1 -->
<svg width="484pt" height="140pt"
 viewBox="0.00 0.00 484.00 140.00" xmlns="http://www.w3.org/2000/svg" xmlns:xlink="http://www.w3.org/1999/xlink">
<g id="graph0" class="graph" transform="scale(1 1) rotate(0) translate(4 136)">
<title>lab_1(uml).cpp</title>
<polygon fill="white" stroke="transparent" points="-4,4 -4,-136 480,-136 480,4 -4,4"/>
<!-- Node1 -->
<g id="node1" class="node">
<title>Node1</title>
<g id="a_node1"><a xlink:title=" ">
<polygon fill="#bfbfbf" stroke="black" points="199,-112.5 199,-131.5 279,-131.5 279,-112.5 199,-112.5"/>
<text text-anchor="middle" x="239" y="-119.5" font-family="Helvetica,sans-Serif" font-size="10.00">lab_1(uml).cpp</text>
</a>
</g>
</g>
<!-- Node2 -->
<g id="node2" class="node">
<title>Node2</title>
<g id="a_node2"><a xlink:title=" ">
<polygon fill="white" stroke="#bfbfbf" points="0,-0.5 0,-19.5 54,-19.5 54,-0.5 0,-0.5"/>
<text text-anchor="middle" x="27" y="-7.5" font-family="Helvetica,sans-Serif" font-size="10.00">iostream</text>
</a>
</g>
</g>
<!-- Node1&#45;&gt;Node2 -->
<g id="edge1" class="edge">
<title>Node1&#45;&gt;Node2</title>
<path fill="none" stroke="midnightblue" d="M198.78,-118.15C144,-113.35 50.32,-101.55 29,-76 18.4,-63.29 19.28,-43.81 21.98,-29.5"/>
<polygon fill="midnightblue" stroke="midnightblue" points="25.39,-30.28 24.23,-19.75 18.57,-28.7 25.39,-30.28"/>
</g>
<!-- Node3 -->
<g id="node3" class="node">
<title>Node3</title>
<g id="a_node3"><a xlink:title=" ">
<polygon fill="white" stroke="#bfbfbf" points="72.5,-0.5 72.5,-19.5 121.5,-19.5 121.5,-0.5 72.5,-0.5"/>
<text text-anchor="middle" x="97" y="-7.5" font-family="Helvetica,sans-Serif" font-size="10.00">cassert</text>
</a>
</g>
</g>
<!-- Node1&#45;&gt;Node3 -->
<g id="edge2" class="edge">
<title>Node1&#45;&gt;Node3</title>
<path fill="none" stroke="midnightblue" d="M227.86,-112.37C203.7,-93.65 146.25,-49.15 116.15,-25.83"/>
<polygon fill="midnightblue" stroke="midnightblue" points="118.14,-22.95 108.09,-19.59 113.85,-28.48 118.14,-22.95"/>
</g>
<!-- Node4 -->
<g id="node4" class="node">
<title>Node4</title>
<g id="a_node4"><a xlink:title=" ">
<polygon fill="white" stroke="#bfbfbf" points="140,-0.5 140,-19.5 182,-19.5 182,-0.5 140,-0.5"/>
<text text-anchor="middle" x="161" y="-7.5" font-family="Helvetica,sans-Serif" font-size="10.00">vector</text>
</a>
</g>
</g>
<!-- Node1&#45;&gt;Node4 -->
<g id="edge3" class="edge">
<title>Node1&#45;&gt;Node4</title>
<path fill="none" stroke="midnightblue" d="M232.88,-112.37C220.01,-94.22 189.93,-51.8 173.05,-27.99"/>
<polygon fill="midnightblue" stroke="midnightblue" points="175.73,-25.72 167.09,-19.59 170.02,-29.77 175.73,-25.72"/>
</g>
<!-- Node5 -->
<g id="node5" class="node">
<title>Node5</title>
<g id="a_node5"><a xlink:title=" ">
<polygon fill="white" stroke="#bfbfbf" points="200,-0.5 200,-19.5 230,-19.5 230,-0.5 200,-0.5"/>
<text text-anchor="middle" x="215" y="-7.5" font-family="Helvetica,sans-Serif" font-size="10.00">set</text>
</a>
</g>
</g>
<!-- Node1&#45;&gt;Node5 -->
<g id="edge4" class="edge">
<title>Node1&#45;&gt;Node5</title>
<path fill="none" stroke="midnightblue" d="M237.12,-112.37C233.24,-94.62 224.31,-53.67 219.06,-29.6"/>
<polygon fill="midnightblue" stroke="midnightblue" points="222.43,-28.62 216.87,-19.59 215.59,-30.11 222.43,-28.62"/>
</g>
<!-- Node6 -->
<g id="node6" class="node">
<title>Node6</title>
<g id="a_node6"><a xlink:title=" ">
<polygon fill="white" stroke="#bfbfbf" points="248.5,-0.5 248.5,-19.5 283.5,-19.5 283.5,-0.5 248.5,-0.5"/>
<text text-anchor="middle" x="266" y="-7.5" font-family="Helvetica,sans-Serif" font-size="10.00">map</text>
</a>
</g>
</g>
<!-- Node1&#45;&gt;Node6 -->
<g id="edge5" class="edge">
<title>Node1&#45;&gt;Node6</title>
<path fill="none" stroke="midnightblue" d="M256.2,-112.39C269.25,-104.79 286.23,-92.39 294,-76 301.77,-59.6 291.26,-40.5 280.98,-27.26"/>
<polygon fill="midnightblue" stroke="midnightblue" points="283.56,-24.9 274.44,-19.5 278.2,-29.41 283.56,-24.9"/>
</g>
<!-- Node7 -->
<g id="node7" class="node">
<title>Node7</title>
<g id="a_node7"><a xlink:title=" ">
<polygon fill="white" stroke="#bfbfbf" points="302,-0.5 302,-19.5 348,-19.5 348,-0.5 302,-0.5"/>
<text text-anchor="middle" x="325" y="-7.5" font-family="Helvetica,sans-Serif" font-size="10.00">stdio.h</text>
</a>
</g>
</g>
<!-- Node1&#45;&gt;Node7 -->
<g id="edge6" class="edge">
<title>Node1&#45;&gt;Node7</title>
<path fill="none" stroke="midnightblue" d="M261.24,-112.39C277.2,-105.07 297.94,-93.03 310,-76 319.52,-62.56 323.09,-44 324.39,-30.15"/>
<polygon fill="midnightblue" stroke="midnightblue" points="327.9,-30.04 325.02,-19.84 320.91,-29.61 327.9,-30.04"/>
</g>
<!-- Node8 -->
<g id="node8" class="node">
<title>Node8</title>
<g id="a_node8"><a xlink:title=" ">
<polygon fill="white" stroke="#bfbfbf" points="366,-0.5 366,-19.5 414,-19.5 414,-0.5 366,-0.5"/>
<text text-anchor="middle" x="390" y="-7.5" font-family="Helvetica,sans-Serif" font-size="10.00">stdlib.h</text>
</a>
</g>
</g>
<!-- Node1&#45;&gt;Node8 -->
<g id="edge7" class="edge">
<title>Node1&#45;&gt;Node8</title>
<path fill="none" stroke="midnightblue" d="M261.33,-112.45C280.34,-104.59 307.85,-91.76 329,-76 347.7,-62.06 365.53,-42.01 377.02,-27.87"/>
<polygon fill="midnightblue" stroke="midnightblue" points="379.84,-29.94 383.32,-19.94 374.36,-25.59 379.84,-29.94"/>
</g>
<!-- Node9 -->
<g id="node9" class="node">
<title>Node9</title>
<g id="a_node9"><a xlink:title=" ">
<polygon fill="white" stroke="#bfbfbf" points="432,-0.5 432,-19.5 476,-19.5 476,-0.5 432,-0.5"/>
<text text-anchor="middle" x="454" y="-7.5" font-family="Helvetica,sans-Serif" font-size="10.00">time.h</text>
</a>
</g>
</g>
<!-- Node1&#45;&gt;Node9 -->
<g id="edge8" class="edge">
<title>Node1&#45;&gt;Node9</title>
<path fill="none" stroke="midnightblue" d="M265.95,-112.36C289.92,-104.25 325.62,-91.13 355,-76 384.01,-61.06 415.1,-39.67 434.54,-25.56"/>
<polygon fill="midnightblue" stroke="midnightblue" points="436.61,-28.38 442.6,-19.64 432.47,-22.74 436.61,-28.38"/>
</g>
<!-- Node10 -->
<g id="node10" class="node">
<title>Node10</title>
<g id="a_node10"><a xlink:href="sparce__list_8h.html" target="_top" xlink:title=" ">
<polygon fill="white" stroke="black" points="38,-56.5 38,-75.5 110,-75.5 110,-56.5 38,-56.5"/>
<text text-anchor="middle" x="74" y="-63.5" font-family="Helvetica,sans-Serif" font-size="10.00">sparce_list.h</text>
</a>
</g>
</g>
<!-- Node1&#45;&gt;Node10 -->
<g id="edge9" class="edge">
<title>Node1&#45;&gt;Node10</title>
<path fill="none" stroke="midnightblue" d="M212.86,-112.44C184.98,-103.32 140.65,-88.81 109.6,-78.65"/>
<polygon fill="midnightblue" stroke="midnightblue" points="110.62,-75.3 100.02,-75.52 108.44,-81.95 110.62,-75.3"/>
</g>
<!-- Node11 -->
<g id="node11" class="node">
<title>Node11</title>
<g id="a_node11"><a xlink:href="dice_8h.html" target="_top" xlink:title=" ">
<polygon fill="white" stroke="black" points="242.5,-56.5 242.5,-75.5 285.5,-75.5 285.5,-56.5 242.5,-56.5"/>
<text text-anchor="middle" x="264" y="-63.5" font-family="Helvetica,sans-Serif" font-size="10.00">dice.h</text>
</a>
</g>
</g>
<!-- Node1&#45;&gt;Node11 -->
<g id="edge13" class="edge">
<title>Node1&#45;&gt;Node11</title>
<path fill="none" stroke="midnightblue" d="M243.13,-112.08C246.51,-104.77 251.42,-94.18 255.62,-85.1"/>
<polygon fill="midnightblue" stroke="midnightblue" points="258.92,-86.3 259.95,-75.75 252.57,-83.36 258.92,-86.3"/>
</g>
<!-- Node10&#45;&gt;Node2 -->
<g id="edge10" class="edge">
<title>Node10&#45;&gt;Node2</title>
<path fill="none" stroke="midnightblue" d="M66.24,-56.08C59.46,-48.3 49.46,-36.8 41.24,-27.37"/>
<polygon fill="midnightblue" stroke="midnightblue" points="43.82,-25 34.62,-19.75 38.54,-29.59 43.82,-25"/>
</g>
<!-- Node10&#45;&gt;Node3 -->
<g id="edge11" class="edge">
<title>Node10&#45;&gt;Node3</title>
<path fill="none" stroke="midnightblue" d="M77.8,-56.08C80.91,-48.77 85.42,-38.18 89.29,-29.1"/>
<polygon fill="midnightblue" stroke="midnightblue" points="92.57,-30.32 93.27,-19.75 86.13,-27.58 92.57,-30.32"/>
</g>
<!-- Node10&#45;&gt;Node4 -->
<g id="edge12" class="edge">
<title>Node10&#45;&gt;Node4</title>
<path fill="none" stroke="midnightblue" d="M87.98,-56.32C101.55,-47.9 122.38,-34.97 138.32,-25.07"/>
<polygon fill="midnightblue" stroke="midnightblue" points="140.41,-27.9 147.06,-19.65 136.71,-21.95 140.41,-27.9"/>
</g>
<!-- Node11&#45;&gt;Node2 -->
<g id="edge14" class="edge">
<title>Node11&#45;&gt;Node2</title>
<path fill="none" stroke="midnightblue" d="M242.25,-60.31C206.99,-52.68 134.93,-36.92 64.09,-20.22"/>
<polygon fill="midnightblue" stroke="midnightblue" points="64.65,-16.75 54.11,-17.85 63.03,-23.56 64.65,-16.75"/>
</g>
<!-- Node11&#45;&gt;Node3 -->
<g id="edge15" class="edge">
<title>Node11&#45;&gt;Node3</title>
<path fill="none" stroke="midnightblue" d="M242.17,-57.94C213.96,-48.82 164.55,-32.84 131.31,-22.09"/>
<polygon fill="midnightblue" stroke="midnightblue" points="132.14,-18.69 121.55,-18.94 129.99,-25.35 132.14,-18.69"/>
</g>
<!-- Node11&#45;&gt;Node4 -->
<g id="edge16" class="edge">
<title>Node11&#45;&gt;Node4</title>
<path fill="none" stroke="midnightblue" d="M247.45,-56.32C231.01,-47.7 205.57,-34.36 186.53,-24.39"/>
<polygon fill="midnightblue" stroke="midnightblue" points="187.99,-21.2 177.51,-19.65 184.74,-27.4 187.99,-21.2"/>
</g>
<!-- Node11&#45;&gt;Node5 -->
<g id="edge17" class="edge">
<title>Node11&#45;&gt;Node5</title>
<path fill="none" stroke="midnightblue" d="M255.91,-56.08C248.84,-48.3 238.41,-36.8 229.85,-27.37"/>
<polygon fill="midnightblue" stroke="midnightblue" points="232.25,-24.8 222.94,-19.75 227.07,-29.51 232.25,-24.8"/>
</g>
<!-- Node11&#45;&gt;Node6 -->
<g id="edge18" class="edge">
<title>Node11&#45;&gt;Node6</title>
<path fill="none" stroke="midnightblue" d="M264.33,-56.08C264.59,-49.01 264.97,-38.86 265.3,-29.99"/>
<polygon fill="midnightblue" stroke="midnightblue" points="268.8,-29.87 265.68,-19.75 261.81,-29.61 268.8,-29.87"/>
</g>
<!-- Node11&#45;&gt;Node7 -->
<g id="edge19" class="edge">
<title>Node11&#45;&gt;Node7</title>
<path fill="none" stroke="midnightblue" d="M273.8,-56.32C282.82,-48.34 296.41,-36.31 307.32,-26.65"/>
<polygon fill="midnightblue" stroke="midnightblue" points="309.85,-29.08 315.02,-19.83 305.21,-23.84 309.85,-29.08"/>
</g>
<!-- Node11&#45;&gt;Node8 -->
<g id="edge20" class="edge">
<title>Node11&#45;&gt;Node8</title>
<path fill="none" stroke="midnightblue" d="M283.97,-56.44C304.61,-47.6 337.06,-33.69 360.63,-23.59"/>
<polygon fill="midnightblue" stroke="midnightblue" points="362.32,-26.67 370.13,-19.52 359.56,-20.24 362.32,-26.67"/>
</g>
<!-- Node11&#45;&gt;Node9 -->
<g id="edge21" class="edge">
<title>Node11&#45;&gt;Node9</title>
<path fill="none" stroke="midnightblue" d="M285.62,-58.93C314.48,-50.82 367.46,-35.89 422.13,-20.24"/>
<polygon fill="midnightblue" stroke="midnightblue" points="423.34,-23.53 431.99,-17.41 421.41,-16.8 423.34,-23.53"/>
</g>
</g>
</svg>
